<svg width="50" height="50" viewBox="0 0 50 50" fill="none" xmlns="http://www.w3.org/2000/svg" xmlns:xlink="http://www.w3.org/1999/xlink">
<path d="M18.833,43.75C18.833,43.796 18.796,43.833 18.75,43.833L18.75,47.833C21.005,47.833 22.833,46.005 22.833,43.75L18.833,43.75ZM18.75,43.833C18.704,43.833 18.667,43.796 18.667,43.75L14.667,43.75C14.667,46.005 16.495,47.833 18.75,47.833L18.75,43.833ZM18.667,43.75C18.667,43.704 18.704,43.667 18.75,43.667L18.75,39.667C16.495,39.667 14.667,41.495 14.667,43.75L18.667,43.75ZM18.75,43.667C18.796,43.667 18.833,43.704 18.833,43.75L22.833,43.75C22.833,41.495 21.005,39.667 18.75,39.667L18.75,43.667Z" fill="#000000"/>
<path d="M41.75,43.75C41.75,43.796 41.713,43.833 41.667,43.833L41.667,47.833C43.922,47.833 45.75,46.005 45.75,43.75L41.75,43.75ZM41.667,43.833C41.621,43.833 41.583,43.796 41.583,43.75L37.583,43.75C37.583,46.005 39.412,47.833 41.667,47.833L41.667,43.833ZM41.583,43.75C41.583,43.704 41.621,43.667 41.667,43.667L41.667,39.667C39.412,39.667 37.583,41.495 37.583,43.75L41.583,43.75ZM41.667,43.667C41.713,43.667 41.75,43.704 41.75,43.75L45.75,43.75C45.75,41.495 43.922,39.667 41.667,39.667L41.667,43.667Z" fill="#000000"/>
<path d="M2.083,0.083C0.979,0.083 0.083,0.979 0.083,2.083C0.083,3.188 0.979,4.083 2.083,4.083L2.083,0.083ZM10.417,2.083L12.378,1.691C12.191,0.756 11.37,0.083 10.417,0.083L10.417,2.083ZM16,29.979L17.962,29.59L17.961,29.587L16,29.979ZM20.167,33.333L20.167,31.333C20.154,31.333 20.141,31.334 20.128,31.334L20.167,33.333ZM40.417,33.333L40.455,31.334C40.442,31.334 40.43,31.333 40.417,31.333L40.417,33.333ZM44.583,29.979L46.545,30.369L46.548,30.354L44.583,29.979ZM47.917,12.5L49.881,12.875C49.993,12.289 49.838,11.684 49.458,11.225C49.078,10.766 48.513,10.5 47.917,10.5L47.917,12.5ZM12.5,10.5C11.395,10.5 10.5,11.395 10.5,12.5C10.5,13.605 11.395,14.5 12.5,14.5L12.5,10.5ZM2.083,4.083L10.417,4.083L10.417,0.083L2.083,0.083L2.083,4.083ZM8.456,2.476L14.039,30.372L17.961,29.587L12.378,1.691L8.456,2.476ZM14.038,30.369C14.32,31.788 15.093,33.064 16.22,33.971L18.728,30.855C18.332,30.536 18.061,30.088 17.962,29.59L14.038,30.369ZM16.22,33.971C17.347,34.879 18.758,35.361 20.205,35.333L20.128,31.334C19.62,31.344 19.124,31.174 18.728,30.855L16.22,33.971ZM20.167,35.333L40.417,35.333L40.417,31.333L20.167,31.333L20.167,35.333ZM40.378,35.333C41.825,35.361 43.236,34.879 44.363,33.971L41.855,30.855C41.459,31.174 40.963,31.344 40.455,31.334L40.378,35.333ZM44.363,33.971C45.491,33.064 46.263,31.788 46.545,30.369L42.622,29.59C42.523,30.088 42.251,30.536 41.855,30.855L44.363,33.971ZM46.548,30.354L49.881,12.875L45.952,12.125L42.619,29.605L46.548,30.354ZM47.917,10.5L12.5,10.5L12.5,14.5L47.917,14.5L47.917,10.5Z" fill="#000000"/>
</svg>
