<svg width="96" height="96" viewBox="0 0 96 96" fill="none" xmlns="http://www.w3.org/2000/svg" xmlns:xlink="http://www.w3.org/1999/xlink">
<path d="M68.706,34.654C74.88,39.083 82.442,41.688 90.61,41.688L90.61,25.914C89.065,25.915 87.523,25.753 86.01,25.431L86.01,37.848C77.843,37.848 70.281,35.242 64.106,30.814L64.106,63.003C64.106,79.106 51.098,92.16 35.054,92.16C29.067,92.16 23.502,90.343 18.88,87.228C24.156,92.642 31.513,96 39.653,96C55.698,96 68.707,82.947 68.707,66.843L68.707,34.654L68.706,34.654L68.706,34.654ZM74.381,18.74C71.226,15.281 69.154,10.811 68.706,5.869L68.706,3.84L64.347,3.84C65.444,10.121 69.187,15.487 74.381,18.74ZM29.028,74.871C27.266,72.552 26.313,69.714 26.317,66.797C26.317,59.432 32.267,53.46 39.607,53.46C40.975,53.46 42.335,53.67 43.639,54.085L43.639,37.959C42.115,37.749 40.578,37.661 39.041,37.693L39.041,50.245C37.736,49.83 36.376,49.619 35.007,49.621C27.667,49.621 21.718,55.591 21.718,62.957C21.718,68.166 24.692,72.675 29.028,74.871Z" fill="#FF004F"/>
<path d="M64.106,30.813C70.281,35.242 77.843,37.847 86.01,37.847L86.01,25.431C81.451,24.457 77.415,22.066 74.381,18.74C69.186,15.487 65.444,10.121 64.347,3.84L52.896,3.84L52.896,66.842C52.87,74.187 46.931,80.134 39.606,80.134C35.29,80.134 31.456,78.07 29.027,74.871C24.691,72.675 21.717,68.165 21.717,62.958C21.717,55.592 27.666,49.621 35.006,49.621C36.413,49.621 37.768,49.841 39.04,50.246L39.04,37.693C23.277,38.02 10.6,50.946 10.6,66.843C10.6,74.778 13.757,81.972 18.88,87.228C23.503,90.343 29.067,92.16 35.054,92.16C51.099,92.16 64.106,79.106 64.106,63.003L64.106,30.813L64.106,30.813Z" fill="#000000"/>
<path d="M86.01,25.431L86.01,22.074C81.899,22.08 77.869,20.925 74.381,18.74C77.468,22.132 81.534,24.471 86.01,25.431ZM64.347,3.84C64.242,3.24 64.162,2.635 64.106,2.029L64.106,0L48.296,0L48.296,63.003C48.271,70.347 42.332,76.294 35.007,76.294C32.856,76.294 30.826,75.782 29.027,74.872C31.456,78.07 35.29,80.134 39.607,80.134C46.93,80.134 52.871,74.188 52.896,66.843L52.896,3.84L64.347,3.84ZM39.041,37.694L39.041,34.12C37.72,33.938 36.388,33.847 35.054,33.848C19.008,33.848 6,46.902 6,63.003C6,73.098 11.112,81.995 18.881,87.228C13.757,81.972 10.6,74.778 10.6,66.843C10.6,50.946 23.277,38.02 39.041,37.694Z" fill="#00F2EA"/>
</svg>
