<svg width="98" height="96" viewBox="0 0 98 96" fill="none" xmlns="http://www.w3.org/2000/svg" xmlns:xlink="http://www.w3.org/1999/xlink">
<path d="M96,48C96,21.491 74.509,0 48,0C21.491,0 0,21.491 0,48C0,70.51 15.498,89.399 36.405,94.587L36.405,62.669L26.508,62.669L26.508,48L36.405,48L36.405,41.679C36.405,25.342 43.799,17.77 59.839,17.77C62.88,17.77 68.127,18.367 70.274,18.962L70.274,32.258C69.141,32.139 67.173,32.079 64.729,32.079C56.859,32.079 53.818,35.061 53.818,42.812L53.818,48L69.496,48L66.803,62.669L53.818,62.669L53.818,95.649C77.585,92.778 96.002,72.541 96.002,48L96,48Z" fill="#0866FF"/>
<path d="M66.801,62.669L69.494,48L53.816,48L53.816,42.812C53.816,35.061 56.857,32.079 64.727,32.079C67.171,32.079 69.139,32.139 70.272,32.258L70.272,18.962C68.125,18.365 62.878,17.77 59.837,17.77C43.797,17.77 36.403,25.342 36.403,41.679L36.403,48L26.506,48L26.506,62.669L36.403,62.669L36.403,94.587C40.116,95.508 44.001,96 47.998,96C49.966,96 51.907,95.879 53.814,95.649L53.814,62.669L66.799,62.669L66.801,62.669Z" fill="#FFFFFF"/>
</svg>
