<svg width="96" height="96" viewBox="0 0 96 96" fill="none" xmlns="http://www.w3.org/2000/svg" xmlns:xlink="http://www.w3.org/1999/xlink">
<path d="M48,8.644C60.825,8.644 62.344,8.7 67.388,8.925C72.075,9.131 74.606,9.919 76.294,10.575C78.525,11.438 80.138,12.488 81.806,14.156C83.494,15.844 84.525,17.438 85.388,19.669C86.044,21.356 86.831,23.906 87.038,28.575C87.263,33.637 87.319,35.156 87.319,47.963C87.319,60.788 87.263,62.306 87.038,67.35C86.831,72.038 86.044,74.569 85.388,76.256C84.525,78.488 83.475,80.1 81.806,81.769C80.119,83.456 78.525,84.488 76.294,85.35C74.606,86.006 72.056,86.794 67.388,87C62.325,87.225 60.806,87.281 48,87.281C35.175,87.281 33.656,87.225 28.613,87C23.925,86.794 21.394,86.006 19.706,85.35C17.475,84.488 15.862,83.438 14.194,81.769C12.506,80.081 11.475,78.488 10.612,76.256C9.956,74.569 9.169,72.019 8.962,67.35C8.737,62.288 8.681,60.769 8.681,47.963C8.681,35.138 8.737,33.619 8.962,28.575C9.169,23.887 9.956,21.356 10.612,19.669C11.475,17.438 12.525,15.825 14.194,14.156C15.881,12.469 17.475,11.438 19.706,10.575C21.394,9.919 23.944,9.131 28.613,8.925C33.656,8.7 35.175,8.644 48,8.644ZM48,0C34.969,0 33.338,0.056 28.219,0.281C23.119,0.506 19.612,1.331 16.575,2.512C13.406,3.75 10.725,5.381 8.063,8.063C5.381,10.725 3.75,13.406 2.513,16.556C1.331,19.613 0.506,23.1 0.281,28.2C0.056,33.337 0,34.969 0,48C0,61.031 0.056,62.662 0.281,67.781C0.506,72.881 1.331,76.388 2.513,79.425C3.75,82.594 5.381,85.275 8.063,87.938C10.725,90.6 13.406,92.25 16.556,93.469C19.612,94.65 23.1,95.475 28.2,95.7C33.319,95.925 34.95,95.981 47.981,95.981C61.013,95.981 62.644,95.925 67.763,95.7C72.863,95.475 76.369,94.65 79.406,93.469C82.556,92.25 85.238,90.6 87.9,87.938C90.562,85.275 92.213,82.594 93.431,79.444C94.613,76.388 95.438,72.9 95.663,67.8C95.888,62.681 95.944,61.05 95.944,48.019C95.944,34.988 95.888,33.356 95.663,28.238C95.438,23.138 94.613,19.631 93.431,16.594C92.25,13.406 90.619,10.725 87.938,8.063C85.275,5.4 82.594,3.75 79.444,2.531C76.388,1.35 72.9,0.525 67.8,0.3C62.663,0.056 61.031,0 48,0Z" fill="#000100"/>
<path d="M48,23.344C34.388,23.344 23.344,34.388 23.344,48C23.344,61.613 34.388,72.656 48,72.656C61.613,72.656 72.656,61.613 72.656,48C72.656,34.388 61.613,23.344 48,23.344ZM48,63.994C39.169,63.994 32.006,56.831 32.006,48C32.006,39.169 39.169,32.006 48,32.006C56.831,32.006 63.994,39.169 63.994,48C63.994,56.831 56.831,63.994 48,63.994Z" fill="#000100"/>
<path d="M79.388,22.369C79.388,25.556 76.8,28.125 73.631,28.125C70.444,28.125 67.875,25.538 67.875,22.369C67.875,19.181 70.462,16.613 73.631,16.613C76.8,16.613 79.388,19.2 79.388,22.369Z" fill="#000100"/>
</svg>
