<svg width="74" height="72" viewBox="0 0 74 72" fill="none" xmlns="http://www.w3.org/2000/svg" xmlns:xlink="http://www.w3.org/1999/xlink">
<path d="M0,72L5.202,53.511C1.992,48.099 0.305,41.964 0.308,35.673C0.318,16.005 16.767,0 36.978,0C46.786,0.003 55.993,3.72 62.918,10.464C69.84,17.208 73.651,26.172 73.648,35.706C73.639,55.377 57.19,71.382 36.978,71.382C30.843,71.379 24.796,69.882 19.44,67.038L0,72ZM20.341,60.579C25.508,63.564 30.442,65.352 36.966,65.355C53.764,65.355 67.448,52.053 67.457,35.7C67.463,19.314 53.844,6.03 36.991,6.024C20.18,6.024 6.506,19.326 6.5,35.676C6.497,42.351 8.507,47.349 11.883,52.578L8.803,63.522L20.341,60.579ZM55.451,44.187C55.222,43.815 54.612,43.593 53.693,43.146C52.777,42.699 48.273,40.542 47.431,40.245C46.592,39.948 45.982,39.798 45.368,40.692C44.758,41.583 43,43.593 42.467,44.187C41.933,44.781 41.397,44.856 40.481,44.409C39.565,43.962 36.611,43.023 33.112,39.984C30.389,37.62 28.549,34.701 28.015,33.807C27.482,32.916 27.96,32.433 28.416,31.989C28.829,31.59 29.332,30.948 29.791,30.426C30.257,29.91 30.408,29.538 30.716,28.941C31.021,28.347 30.87,27.825 30.639,27.378C30.408,26.934 28.576,22.545 27.815,20.76C27.069,19.023 26.313,19.257 25.752,19.23L23.994,19.2C23.384,19.2 22.391,19.422 21.552,20.316C20.714,21.21 18.346,23.364 18.346,27.753C18.346,32.142 21.63,36.381 22.086,36.975C22.545,37.569 28.545,46.575 37.737,50.436C39.923,51.354 41.631,51.903 42.96,52.314C45.155,52.992 47.153,52.896 48.732,52.668C50.493,52.413 54.152,50.511 54.917,48.429C55.682,46.344 55.682,44.559 55.451,44.187Z" fill="#25D366"/>
</svg>
