<svg width="96" height="96" viewBox="0 0 96 96" fill="none" xmlns="http://www.w3.org/2000/svg" xmlns:xlink="http://www.w3.org/1999/xlink">
<path d="M88.913,0L7.087,0C5.207,0 3.405,0.747 2.076,2.076C0.747,3.405 0,5.207 0,7.087L0,88.913C0,90.793 0.747,92.595 2.076,93.924C3.405,95.253 5.207,96 7.087,96L88.913,96C90.793,96 92.595,95.253 93.924,93.924C95.253,92.595 96,90.793 96,88.913L96,7.087C96,5.207 95.253,3.405 93.924,2.076C92.595,0.747 90.793,0 88.913,0ZM28.613,81.78L14.18,81.78L14.18,35.933L28.613,35.933L28.613,81.78ZM21.387,29.58C19.749,29.571 18.152,29.077 16.795,28.16C15.438,27.244 14.383,25.946 13.764,24.431C13.144,22.915 12.987,21.25 13.312,19.646C13.638,18.041 14.431,16.569 15.593,15.415C16.754,14.261 18.231,13.477 19.838,13.162C21.444,12.847 23.108,13.014 24.62,13.644C26.131,14.273 27.422,15.337 28.33,16.699C29.238,18.062 29.721,19.663 29.72,21.3C29.735,22.396 29.53,23.484 29.116,24.499C28.702,25.514 28.088,26.436 27.31,27.208C26.533,27.981 25.607,28.589 24.59,28.997C23.572,29.404 22.483,29.602 21.387,29.58ZM81.813,81.82L67.387,81.82L67.387,56.773C67.387,49.387 64.247,47.107 60.193,47.107C55.913,47.107 51.713,50.333 51.713,56.96L51.713,81.82L37.28,81.82L37.28,35.967L51.16,35.967L51.16,42.32L51.347,42.32C52.74,39.5 57.62,34.68 65.067,34.68C73.12,34.68 81.82,39.46 81.82,53.46L81.813,81.82Z" fill="#0A66C2"/>
</svg>
